# xmcd CD database file generated by OrangeCD 6.1
#
# Track frame offsets:
#	150
#	12793
#	26091
#	38455
#	50549
#	62729
#	75856
#	89309
#	100646
#	109943
#	121998
#	134328
#	143170
#	154383
#	164218
#
# Disc length: 2318 seconds
#
# Revision: 0
# Processed by: cddbd v1.5.2PL0 Copyright (c) Steve Scherf et al.
# Submitted via: OrangeCD 6.1
#
DISCID=be090c0f
DTITLE=Big Joe Turner - The Definitive Blues Collection CD2
DYEAR=2007
DGENRE=Blues
TTITLE0=Flip, Flop and Fly
TTITLE1=Ti-Ri-Lee
TTITLE2=Hide and Seek
TTITLE3=The Chicken and The Hawk
TTITLE4=Morning, Noon and Night
TTITLE5=Corrine Corrina
TTITLE6=Boogie Woogie Country Girl
TTITLE7=Lipstick, Powder and Paint
TTITLE8=Rock a While
TTITLE9=Midnight Special Train
TTITLE10=Feeling Happy
TTITLE11=Love Roller Coaster
TTITLE12=Teenage Letter
TTITLE13=Jump For Joy
TTITLE14=Tomorrow Night
EXTD=
EXTT0=
EXTT1=
EXTT2=
EXTT3=
EXTT4=
EXTT5=
EXTT6=
EXTT7=
EXTT8=
EXTT9=
EXTT10=
EXTT11=
EXTT12=
EXTT13=
EXTT14=
PLAYORDER=
